<?xml version="1.0" encoding="UTF-8" standalone="no"?>
<!DOCTYPE svg PUBLIC "-//W3C//DTD SVG 1.1//EN"
 "http://www.w3.org/Graphics/SVG/1.1/DTD/svg11.dtd">
<!-- Generated by graphviz version 14.0.0 (20250921.2048)
 -->
<!-- Title: blueprint_deps Pages: 1 -->
<svg width="557pt" height="445pt"
 viewBox="0.00 0.00 557.00 445.00" xmlns="http://www.w3.org/2000/svg" xmlns:xlink="http://www.w3.org/1999/xlink">
<g id="graph0" class="graph" transform="scale(1 1) rotate(0) translate(4 440.75)">
<title>blueprint_deps</title>
<polygon fill="white" stroke="none" points="-4,4 -4,-440.75 553.38,-440.75 553.38,4 -4,4"/>
<!-- manifold -->
<g id="node1" class="node">
<title>manifold</title>
<polygon fill="#90ee90" stroke="green" points="124.75,-148.75 24,-148.75 24,-109.25 124.75,-109.25 124.75,-148.75"/>
<text xml:space="preserve" text-anchor="middle" x="74.38" y="-131.45" font-family="Arial" font-size="14.00">Manifold Type</text>
<text xml:space="preserve" text-anchor="middle" x="74.38" y="-115.7" font-family="Arial" font-size="14.00">(Basic)</text>
</g>
<!-- metric -->
<g id="node2" class="node">
<title>metric</title>
<polygon fill="#ffffe0" stroke="orange" points="329.38,-220.75 199.38,-220.75 199.38,-184.75 329.38,-184.75 329.38,-220.75"/>
<text xml:space="preserve" text-anchor="middle" x="264.38" y="-197.32" font-family="Arial" font-size="14.00">Riemannian Metric</text>
</g>
<!-- metric&#45;&gt;manifold -->
<g id="edge1" class="edge">
<title>metric&#45;&gt;manifold</title>
<path fill="none" stroke="black" d="M218.38,-184.38C193.46,-174.97 162.35,-163.22 135.43,-153.06"/>
<polygon fill="black" stroke="black" points="136.96,-149.89 126.37,-149.63 134.49,-156.44 136.96,-149.89"/>
</g>
<!-- pos_mul -->
<g id="node7" class="node">
<title>pos_mul</title>
<polygon fill="#90ee90" stroke="green" points="239.88,-147 142.88,-147 142.88,-111 239.88,-111 239.88,-147"/>
<text xml:space="preserve" text-anchor="middle" x="191.38" y="-123.58" font-family="Arial" font-size="14.00">pos_mul_pos</text>
</g>
<!-- metric&#45;&gt;pos_mul -->
<g id="edge9" class="edge">
<title>metric&#45;&gt;pos_mul</title>
<path fill="none" stroke="black" stroke-dasharray="1,5" d="M246.7,-184.38C237.89,-175.72 227.06,-165.08 217.33,-155.51"/>
<polygon fill="black" stroke="black" points="219.8,-153.03 210.22,-148.52 214.89,-158.02 219.8,-153.03"/>
</g>
<!-- square_pos -->
<g id="node8" class="node">
<title>square_pos</title>
<polygon fill="#90ee90" stroke="green" points="419.12,-147 257.62,-147 257.62,-111 419.12,-111 419.12,-147"/>
<text xml:space="preserve" text-anchor="middle" x="338.38" y="-123.58" font-family="Arial" font-size="14.00">square_pos_of_ne_zero</text>
</g>
<!-- metric&#45;&gt;square_pos -->
<g id="edge10" class="edge">
<title>metric&#45;&gt;square_pos</title>
<path fill="none" stroke="black" stroke-dasharray="1,5" d="M282.29,-184.38C291.31,-175.63 302.42,-164.86 312.36,-155.22"/>
<polygon fill="black" stroke="black" points="314.54,-157.98 319.28,-148.51 309.67,-152.96 314.54,-157.98"/>
</g>
<!-- cont_at -->
<g id="node11" class="node">
<title>cont_at</title>
<polygon fill="#90ee90" stroke="green" points="549.38,-147 437.38,-147 437.38,-111 549.38,-111 549.38,-147"/>
<text xml:space="preserve" text-anchor="middle" x="493.38" y="-123.58" font-family="Arial" font-size="14.00">continuousAt_iff</text>
</g>
<!-- metric&#45;&gt;cont_at -->
<g id="edge11" class="edge">
<title>metric&#45;&gt;cont_at</title>
<path fill="none" stroke="black" stroke-dasharray="1,5" d="M320.1,-184.29C352.36,-174.18 393.15,-161.4 427.05,-150.78"/>
<polygon fill="black" stroke="black" points="427.86,-154.2 436.35,-147.87 425.76,-147.52 427.86,-154.2"/>
</g>
<!-- ricci_tensor -->
<g id="node3" class="node">
<title>ricci_tensor</title>
<polygon fill="#ffffe0" stroke="orange" points="273.12,-292.75 183.62,-292.75 183.62,-256.75 273.12,-256.75 273.12,-292.75"/>
<text xml:space="preserve" text-anchor="middle" x="228.38" y="-269.32" font-family="Arial" font-size="14.00">Ricci Tensor</text>
</g>
<!-- ricci_tensor&#45;&gt;metric -->
<g id="edge2" class="edge">
<title>ricci_tensor&#45;&gt;metric</title>
<path fill="none" stroke="black" d="M237.27,-256.45C241.24,-248.73 246.01,-239.46 250.43,-230.86"/>
<polygon fill="black" stroke="black" points="253.43,-232.69 254.89,-222.2 247.2,-229.49 253.43,-232.69"/>
</g>
<!-- scalar_curv -->
<g id="node4" class="node">
<title>scalar_curv</title>
<polygon fill="#90ee90" stroke="green" points="181,-364.75 63.75,-364.75 63.75,-328.75 181,-328.75 181,-364.75"/>
<text xml:space="preserve" text-anchor="middle" x="122.38" y="-341.32" font-family="Arial" font-size="14.00">Scalar Curvature</text>
</g>
<!-- scalar_curv&#45;&gt;ricci_tensor -->
<g id="edge3" class="edge">
<title>scalar_curv&#45;&gt;ricci_tensor</title>
<path fill="none" stroke="black" d="M148.85,-328.27C162.1,-319.51 178.34,-308.79 192.67,-299.33"/>
<polygon fill="black" stroke="black" points="194.56,-302.28 200.97,-293.84 190.7,-296.43 194.56,-302.28"/>
</g>
<!-- inv_pos -->
<g id="node10" class="node">
<title>inv_pos</title>
<polygon fill="#90ee90" stroke="green" points="165.62,-292.75 55.12,-292.75 55.12,-256.75 165.62,-256.75 165.62,-292.75"/>
<text xml:space="preserve" text-anchor="middle" x="110.38" y="-269.32" font-family="Arial" font-size="14.00">inv_pos_of_pos</text>
</g>
<!-- scalar_curv&#45;&gt;inv_pos -->
<g id="edge4" class="edge">
<title>scalar_curv&#45;&gt;inv_pos</title>
<path fill="none" stroke="black" d="M119.41,-328.45C118.14,-321.07 116.64,-312.27 115.22,-304"/>
<polygon fill="black" stroke="black" points="118.7,-303.61 113.56,-294.35 111.8,-304.79 118.7,-303.61"/>
</g>
<!-- flow_eq -->
<g id="node5" class="node">
<title>flow_eq</title>
<polygon fill="#ffffe0" stroke="orange" points="356.62,-364.75 222.12,-364.75 222.12,-328.75 356.62,-328.75 356.62,-364.75"/>
<text xml:space="preserve" text-anchor="middle" x="289.38" y="-341.32" font-family="Arial" font-size="14.00">Ricci Flow Equation</text>
</g>
<!-- flow_eq&#45;&gt;metric -->
<g id="edge5" class="edge">
<title>flow_eq&#45;&gt;metric</title>
<path fill="none" stroke="black" d="M289.28,-328.51C288.89,-310.45 287.44,-281.34 282.38,-256.75 280.67,-248.47 278.05,-239.7 275.32,-231.72"/>
<polygon fill="black" stroke="black" points="278.7,-230.75 272.01,-222.54 272.11,-233.13 278.7,-230.75"/>
</g>
<!-- flow_eq&#45;&gt;ricci_tensor -->
<g id="edge6" class="edge">
<title>flow_eq&#45;&gt;ricci_tensor</title>
<path fill="none" stroke="black" d="M274.3,-328.45C267.2,-320.31 258.6,-310.44 250.77,-301.45"/>
<polygon fill="black" stroke="black" points="253.48,-299.24 244.27,-294 248.21,-303.83 253.48,-299.24"/>
</g>
<!-- existence -->
<g id="node6" class="node">
<title>existence</title>
<polygon fill="#ffb6c1" stroke="red" points="432.25,-436.75 286.5,-436.75 286.5,-400.75 432.25,-400.75 432.25,-436.75"/>
<text xml:space="preserve" text-anchor="middle" x="359.38" y="-413.32" font-family="Arial" font-size="14.00">Short&#45;Time Existence</text>
</g>
<!-- existence&#45;&gt;flow_eq -->
<g id="edge7" class="edge">
<title>existence&#45;&gt;flow_eq</title>
<path fill="none" stroke="black" d="M342.07,-400.45C333.76,-392.14 323.65,-382.03 314.52,-372.89"/>
<polygon fill="black" stroke="black" points="317.1,-370.52 307.55,-365.92 312.15,-375.47 317.1,-370.52"/>
</g>
<!-- exists_pos -->
<g id="node9" class="node">
<title>exists_pos</title>
<polygon fill="#90ee90" stroke="green" points="484.25,-364.75 374.5,-364.75 374.5,-328.75 484.25,-328.75 484.25,-364.75"/>
<text xml:space="preserve" text-anchor="middle" x="429.38" y="-341.32" font-family="Arial" font-size="14.00">exists_pos_real</text>
</g>
<!-- existence&#45;&gt;exists_pos -->
<g id="edge8" class="edge">
<title>existence&#45;&gt;exists_pos</title>
<path fill="none" stroke="black" d="M376.68,-400.45C384.99,-392.14 395.1,-382.03 404.23,-372.89"/>
<polygon fill="black" stroke="black" points="406.6,-375.47 411.2,-365.92 401.65,-370.52 406.6,-375.47"/>
</g>
<!-- legend -->
<g id="node12" class="node">
<title>legend</title>
<polygon fill="lightgrey" stroke="none" points="148.75,-73.25 0,-73.25 0,0 148.75,0 148.75,-73.25"/>
<polygon fill="#90ee90" stroke="none" points="8,-47.5 8,-69.25 140.75,-69.25 140.75,-47.5 8,-47.5"/>
<polygon fill="none" stroke="black" points="8,-47.5 8,-69.25 140.75,-69.25 140.75,-47.5 8,-47.5"/>
<text xml:space="preserve" text-anchor="start" x="22.25" y="-52.95" font-family="Arial" font-size="14.00">Green: Complete</text>
<polygon fill="#ffffe0" stroke="none" points="8,-25.75 8,-47.5 140.75,-47.5 140.75,-25.75 8,-25.75"/>
<polygon fill="none" stroke="black" points="8,-25.75 8,-47.5 140.75,-47.5 140.75,-25.75 8,-25.75"/>
<text xml:space="preserve" text-anchor="start" x="11" y="-31.2" font-family="Arial" font-size="14.00">Yellow: Partial/Axiom</text>
<polygon fill="#ffb6c1" stroke="none" points="8,-4 8,-25.75 140.75,-25.75 140.75,-4 8,-4"/>
<polygon fill="none" stroke="black" points="8,-4 8,-25.75 140.75,-25.75 140.75,-4 8,-4"/>
<text xml:space="preserve" text-anchor="start" x="26" y="-9.45" font-family="Arial" font-size="14.00">Red: Uses sorry</text>
</g>
</g>
</svg>
