<?xml version="1.0" encoding="UTF-8" standalone="no"?>
<!DOCTYPE svg PUBLIC "-//W3C//DTD SVG 1.1//EN"
 "http://www.w3.org/Graphics/SVG/1.1/DTD/svg11.dtd">
<!-- Generated by graphviz version 14.0.0 (20250921.2048)
 -->
<!-- Title: dependencies Pages: 1 -->
<svg width="986pt" height="332pt"
 viewBox="0.00 0.00 986.00 332.00" xmlns="http://www.w3.org/2000/svg" xmlns:xlink="http://www.w3.org/1999/xlink">
<g id="graph0" class="graph" transform="scale(1 1) rotate(0) translate(4 328)">
<title>dependencies</title>
<polygon fill="white" stroke="none" points="-4,4 -4,-328 982.42,-328 982.42,4 -4,4"/>
<!-- lem:pos_mul_pos -->
<g id="node1" class="node">
<title>lem:pos_mul_pos</title>
<ellipse fill="lightgreen" stroke="black" cx="357.94" cy="-18" rx="82" ry="18"/>
<text xml:space="preserve" text-anchor="middle" x="357.94" y="-12.57" font-family="Arial" font-size="14.00">lem:pos_mul_pos</text>
</g>
<!-- def:riemannian_metric -->
<g id="node6" class="node">
<title>def:riemannian_metric</title>
<polygon fill="lightgreen" stroke="black" points="545.44,-108 394.44,-108 394.44,-72 545.44,-72 545.44,-108"/>
<text xml:space="preserve" text-anchor="middle" x="469.94" y="-84.58" font-family="Arial" font-size="14.00">def:riemannian_metric</text>
</g>
<!-- lem:pos_mul_pos&#45;&gt;def:riemannian_metric -->
<g id="edge1" class="edge">
<title>lem:pos_mul_pos&#45;&gt;def:riemannian_metric</title>
<path fill="none" stroke="black" d="M384.2,-35.41C398.66,-44.45 416.84,-55.81 432.73,-65.75"/>
<polygon fill="black" stroke="black" points="430.66,-68.58 441,-70.91 434.37,-62.64 430.66,-68.58"/>
</g>
<!-- lem:square_pos_of_ne_zero -->
<g id="node2" class="node">
<title>lem:square_pos_of_ne_zero</title>
<ellipse fill="lightgreen" stroke="black" cx="582.94" cy="-18" rx="124.92" ry="18"/>
<text xml:space="preserve" text-anchor="middle" x="582.94" y="-12.57" font-family="Arial" font-size="14.00">lem:square_pos_of_ne_zero</text>
</g>
<!-- lem:square_pos_of_ne_zero&#45;&gt;def:riemannian_metric -->
<g id="edge2" class="edge">
<title>lem:square_pos_of_ne_zero&#45;&gt;def:riemannian_metric</title>
<path fill="none" stroke="black" d="M555.59,-35.95C541.09,-44.93 523.07,-56.09 507.3,-65.86"/>
<polygon fill="black" stroke="black" points="505.77,-62.69 499.11,-70.93 509.46,-68.64 505.77,-62.69"/>
</g>
<!-- lem:exists_pos_real -->
<g id="node3" class="node">
<title>lem:exists_pos_real</title>
<ellipse fill="lightgreen" stroke="black" cx="887.94" cy="-234" rx="90.48" ry="18"/>
<text xml:space="preserve" text-anchor="middle" x="887.94" y="-228.57" font-family="Arial" font-size="14.00">lem:exists_pos_real</text>
</g>
<!-- thm:short_time_existence -->
<g id="node15" class="node">
<title>thm:short_time_existence</title>
<ellipse fill="lightyellow" stroke="black" cx="832.94" cy="-306" rx="113.94" ry="18"/>
<text xml:space="preserve" text-anchor="middle" x="832.94" y="-300.57" font-family="Arial" font-size="14.00">thm:short_time_existence</text>
</g>
<!-- lem:exists_pos_real&#45;&gt;thm:short_time_existence -->
<g id="edge14" class="edge">
<title>lem:exists_pos_real&#45;&gt;thm:short_time_existence</title>
<path fill="none" stroke="black" d="M874.63,-251.95C868.3,-259.99 860.6,-269.8 853.55,-278.77"/>
<polygon fill="black" stroke="black" points="850.87,-276.51 847.45,-286.53 856.38,-280.83 850.87,-276.51"/>
</g>
<!-- lem:inv_pos_of_pos -->
<g id="node4" class="node">
<title>lem:inv_pos_of_pos</title>
<ellipse fill="lightgreen" stroke="black" cx="465.94" cy="-162" rx="90.98" ry="18"/>
<text xml:space="preserve" text-anchor="middle" x="465.94" y="-156.57" font-family="Arial" font-size="14.00">lem:inv_pos_of_pos</text>
</g>
<!-- def:scalar_curvature -->
<g id="node12" class="node">
<title>def:scalar_curvature</title>
<polygon fill="lightgreen" stroke="black" points="599.06,-252 460.81,-252 460.81,-216 599.06,-216 599.06,-252"/>
<text xml:space="preserve" text-anchor="middle" x="529.94" y="-228.57" font-family="Arial" font-size="14.00">def:scalar_curvature</text>
</g>
<!-- lem:inv_pos_of_pos&#45;&gt;def:scalar_curvature -->
<g id="edge9" class="edge">
<title>lem:inv_pos_of_pos&#45;&gt;def:scalar_curvature</title>
<path fill="none" stroke="black" d="M481.43,-179.95C488.95,-188.16 498.13,-198.21 506.48,-207.34"/>
<polygon fill="black" stroke="black" points="503.79,-209.59 513.12,-214.61 508.96,-204.87 503.79,-209.59"/>
</g>
<!-- lem:continuous_at_iff -->
<g id="node5" class="node">
<title>lem:continuous_at_iff</title>
<ellipse fill="lightgreen" stroke="black" cx="821.94" cy="-18" rx="95.97" ry="18"/>
<text xml:space="preserve" text-anchor="middle" x="821.94" y="-12.57" font-family="Arial" font-size="14.00">lem:continuous_at_iff</text>
</g>
<!-- def:inner_product -->
<g id="node7" class="node">
<title>def:inner_product</title>
<polygon fill="lightgreen" stroke="black" points="210.44,-180 89.44,-180 89.44,-144 210.44,-144 210.44,-180"/>
<text xml:space="preserve" text-anchor="middle" x="149.94" y="-156.57" font-family="Arial" font-size="14.00">def:inner_product</text>
</g>
<!-- def:riemannian_metric&#45;&gt;def:inner_product -->
<g id="edge3" class="edge">
<title>def:riemannian_metric&#45;&gt;def:inner_product</title>
<path fill="none" stroke="black" d="M394.1,-107.59C341.93,-119 273.07,-134.07 221.78,-145.29"/>
<polygon fill="black" stroke="black" points="221.28,-141.81 212.26,-147.37 222.78,-148.65 221.28,-141.81"/>
</g>
<!-- def:norm_sq -->
<g id="node8" class="node">
<title>def:norm_sq</title>
<polygon fill="lightgreen" stroke="black" points="356.81,-180 265.06,-180 265.06,-144 356.81,-144 356.81,-180"/>
<text xml:space="preserve" text-anchor="middle" x="310.94" y="-156.57" font-family="Arial" font-size="14.00">def:norm_sq</text>
</g>
<!-- def:riemannian_metric&#45;&gt;def:norm_sq -->
<g id="edge4" class="edge">
<title>def:riemannian_metric&#45;&gt;def:norm_sq</title>
<path fill="none" stroke="black" d="M430.23,-108.48C409.18,-117.75 383.13,-129.22 360.75,-139.07"/>
<polygon fill="black" stroke="black" points="359.55,-135.78 351.81,-143.01 362.37,-142.18 359.55,-135.78"/>
</g>
<!-- def:ricci_tensor -->
<g id="node11" class="node">
<title>def:ricci_tensor</title>
<polygon fill="lightgreen" stroke="black" points="682.69,-180 575.19,-180 575.19,-144 682.69,-144 682.69,-180"/>
<text xml:space="preserve" text-anchor="middle" x="628.94" y="-156.57" font-family="Arial" font-size="14.00">def:ricci_tensor</text>
</g>
<!-- def:riemannian_metric&#45;&gt;def:ricci_tensor -->
<g id="edge7" class="edge">
<title>def:riemannian_metric&#45;&gt;def:ricci_tensor</title>
<path fill="none" stroke="black" d="M509.65,-108.48C530.69,-117.75 556.75,-129.22 579.13,-139.07"/>
<polygon fill="black" stroke="black" points="577.51,-142.18 588.07,-143.01 580.33,-135.78 577.51,-142.18"/>
</g>
<!-- def:ricci_flow_equation -->
<g id="node14" class="node">
<title>def:ricci_flow_equation</title>
<polygon fill="lightyellow" stroke="black" points="779.56,-252 626.31,-252 626.31,-216 779.56,-216 779.56,-252"/>
<text xml:space="preserve" text-anchor="middle" x="702.94" y="-228.57" font-family="Arial" font-size="14.00">def:ricci_flow_equation</text>
</g>
<!-- def:riemannian_metric&#45;&gt;def:ricci_flow_equation -->
<g id="edge11" class="edge">
<title>def:riemannian_metric&#45;&gt;def:ricci_flow_equation</title>
<path fill="none" stroke="black" d="M545.85,-99.84C602.21,-108.04 672.52,-122.29 691.94,-144 706.38,-160.14 708.37,-185.03 707.18,-204.38"/>
<polygon fill="black" stroke="black" points="703.72,-203.8 706.26,-214.08 710.69,-204.46 703.72,-203.8"/>
</g>
<!-- lem:inner_product_symm -->
<g id="node9" class="node">
<title>lem:inner_product_symm</title>
<ellipse fill="lightgreen" stroke="black" cx="112.94" cy="-234" rx="112.94" ry="18"/>
<text xml:space="preserve" text-anchor="middle" x="112.94" y="-228.57" font-family="Arial" font-size="14.00">lem:inner_product_symm</text>
</g>
<!-- def:inner_product&#45;&gt;lem:inner_product_symm -->
<g id="edge5" class="edge">
<title>def:inner_product&#45;&gt;lem:inner_product_symm</title>
<path fill="none" stroke="black" d="M140.79,-180.3C136.72,-188.02 131.82,-197.29 127.27,-205.89"/>
<polygon fill="black" stroke="black" points="124.27,-204.08 122.69,-214.56 130.45,-207.35 124.27,-204.08"/>
</g>
<!-- lem:norm_sq_pos -->
<g id="node10" class="node">
<title>lem:norm_sq_pos</title>
<ellipse fill="lightgreen" stroke="black" cx="326.94" cy="-234" rx="83" ry="18"/>
<text xml:space="preserve" text-anchor="middle" x="326.94" y="-228.57" font-family="Arial" font-size="14.00">lem:norm_sq_pos</text>
</g>
<!-- def:norm_sq&#45;&gt;lem:norm_sq_pos -->
<g id="edge6" class="edge">
<title>def:norm_sq&#45;&gt;lem:norm_sq_pos</title>
<path fill="none" stroke="black" d="M314.89,-180.3C316.58,-187.68 318.59,-196.48 320.48,-204.75"/>
<polygon fill="black" stroke="black" points="317.05,-205.45 322.69,-214.42 323.88,-203.89 317.05,-205.45"/>
</g>
<!-- def:ricci_tensor&#45;&gt;def:scalar_curvature -->
<g id="edge8" class="edge">
<title>def:ricci_tensor&#45;&gt;def:scalar_curvature</title>
<path fill="none" stroke="black" d="M604.21,-180.48C591.95,-189.15 576.96,-199.75 563.67,-209.15"/>
<polygon fill="black" stroke="black" points="561.73,-206.23 555.59,-214.87 565.77,-211.95 561.73,-206.23"/>
</g>
<!-- def:ricci_tensor&#45;&gt;def:ricci_flow_equation -->
<g id="edge12" class="edge">
<title>def:ricci_tensor&#45;&gt;def:ricci_flow_equation</title>
<path fill="none" stroke="black" d="M647.23,-180.3C656.04,-188.63 666.76,-198.78 676.44,-207.93"/>
<polygon fill="black" stroke="black" points="673.83,-210.28 683.5,-214.61 678.64,-205.2 673.83,-210.28"/>
</g>
<!-- lem:scalar_curvature_eq -->
<g id="node13" class="node">
<title>lem:scalar_curvature_eq</title>
<ellipse fill="lightgreen" stroke="black" cx="529.94" cy="-306" rx="109.45" ry="18"/>
<text xml:space="preserve" text-anchor="middle" x="529.94" y="-300.57" font-family="Arial" font-size="14.00">lem:scalar_curvature_eq</text>
</g>
<!-- def:scalar_curvature&#45;&gt;lem:scalar_curvature_eq -->
<g id="edge10" class="edge">
<title>def:scalar_curvature&#45;&gt;lem:scalar_curvature_eq</title>
<path fill="none" stroke="black" d="M529.94,-252.3C529.94,-259.59 529.94,-268.27 529.94,-276.46"/>
<polygon fill="black" stroke="black" points="526.44,-276.38 529.94,-286.38 533.44,-276.38 526.44,-276.38"/>
</g>
<!-- def:ricci_flow_equation&#45;&gt;thm:short_time_existence -->
<g id="edge13" class="edge">
<title>def:ricci_flow_equation&#45;&gt;thm:short_time_existence</title>
<path fill="none" stroke="black" d="M735.41,-252.48C752.46,-261.67 773.54,-273.02 791.73,-282.81"/>
<polygon fill="black" stroke="black" points="789.98,-285.84 800.45,-287.5 793.3,-279.68 789.98,-285.84"/>
</g>
</g>
</svg>
